<svg width="24" height="24" viewBox="0 0 24 24" fill="none" xmlns="http://www.w3.org/2000/svg">
<g id="Icons/File/Document-2/">
<path id="Subtract" fill-rule="evenodd" clip-rule="evenodd" d="M6.85 2C5.27599 2 4 3.27599 4 4.85V18.15C4 19.724 5.27599 21 6.85 21H16.35C17.924 21 19.2 19.724 19.2 18.15V8.88051C19.2 8.12464 18.8997 7.39973 18.3653 6.86525L14.3347 2.83475C13.8003 2.30027 13.0754 2 12.3195 2H6.85ZM13.5949 3.70711L17.4928 7.605H14.4499C13.9777 7.605 13.5949 7.2222 13.5949 6.75V3.70711ZM8.37 12.26C8.0552 12.26 7.8 12.5152 7.8 12.83C7.8 13.1448 8.0552 13.4 8.37 13.4H14.83C15.1448 13.4 15.4 13.1448 15.4 12.83C15.4 12.5152 15.1448 12.26 14.83 12.26H8.37ZM7.8 15.68C7.8 15.3652 8.0552 15.11 8.37 15.11H12.93C13.2448 15.11 13.5 15.3652 13.5 15.68C13.5 15.9948 13.2448 16.25 12.93 16.25H8.37C8.0552 16.25 7.8 15.9948 7.8 15.68Z" fill="white"/>
</g>
</svg>
