<svg width="18" height="18" viewBox="0 0 18 18" fill="none" xmlns="http://www.w3.org/2000/svg">
<path fill-rule="evenodd" clip-rule="evenodd" d="M9.44993 12.2959C9.9532 12.1122 10.3125 11.6293 10.3125 11.0625C10.3125 10.3376 9.72487 9.75 9 9.75C8.27513 9.75 7.6875 10.3376 7.6875 11.0625C7.6875 11.6293 8.04673 12.1121 8.54993 12.2958V13.0499C8.54993 13.2985 8.7514 13.4999 8.99993 13.4999C9.24846 13.4999 9.44993 13.2985 9.44993 13.0499V12.2959ZM9 11.475C9.22782 11.475 9.4125 11.2903 9.4125 11.0625C9.4125 10.8347 9.22782 10.65 9 10.65C8.77218 10.65 8.5875 10.8347 8.5875 11.0625C8.5875 11.2903 8.77218 11.475 9 11.475Z" fill="#CDCDCD"/>
<path fill-rule="evenodd" clip-rule="evenodd" d="M9 1.5C6.92893 1.5 5.25 3.17893 5.25 5.25V6.75C4.00736 6.75 3 7.75736 3 9V14.25C3 15.4926 4.00736 16.5 5.25 16.5H12.75C13.9926 16.5 15 15.4926 15 14.25V9C15 7.75736 13.9926 6.75 12.75 6.75L12.75 5.25C12.75 3.17893 11.0711 1.5 9 1.5ZM11.85 6.75V5.25C11.85 3.67599 10.574 2.4 9 2.4C7.42599 2.4 6.15 3.67599 6.15 5.25V6.75H11.85ZM5.25 7.65C4.50442 7.65 3.9 8.25442 3.9 9V14.25C3.9 14.9956 4.50442 15.6 5.25 15.6H12.75C13.4956 15.6 14.1 14.9956 14.1 14.25V9C14.1 8.25442 13.4956 7.65 12.75 7.65H5.25Z" fill="#CDCDCD"/>
</svg>
