<svg width="19" height="22" viewBox="0 0 19 22" fill="none" xmlns="http://www.w3.org/2000/svg">
<g id="Icons/Menu/Menu">
<g id="Vector">
<path fill-rule="evenodd" clip-rule="evenodd" d="M2.375 4.162C2.375 3.86219 2.58766 3.61914 2.85 3.61914H16.15C16.4123 3.61914 16.625 3.86219 16.625 4.162C16.625 4.46181 16.4123 4.70485 16.15 4.70485H2.85C2.58766 4.70485 2.375 4.46181 2.375 4.162Z" fill="#333333"/>
<path fill-rule="evenodd" clip-rule="evenodd" d="M2.375 17.5523C2.375 17.2525 2.58766 17.0094 2.85 17.0094H16.15C16.4123 17.0094 16.625 17.2525 16.625 17.5523C16.625 17.8521 16.4123 18.0952 16.15 18.0952H2.85C2.58766 18.0952 2.375 17.8521 2.375 17.5523Z" fill="#333333"/>
<path fill-rule="evenodd" clip-rule="evenodd" d="M2.375 10.8571C2.375 10.5573 2.58766 10.3143 2.85 10.3143H12.9833C13.2457 10.3143 13.4583 10.5573 13.4583 10.8571C13.4583 11.157 13.2457 11.4 12.9833 11.4H2.85C2.58766 11.4 2.375 11.157 2.375 10.8571Z" fill="#333333"/>
</g>
<path id="Union" fill-rule="evenodd" clip-rule="evenodd" d="M12.5456 11.3211C12.7647 11.0709 12.7647 10.6653 12.5456 10.4151L10.4011 7.96717C10.255 7.80039 10.255 7.53 10.4011 7.36322C10.5472 7.19645 10.7841 7.19645 10.9302 7.36322L13.0747 9.81119C13.586 10.3949 13.586 11.3413 13.0747 11.925L10.9302 14.373C10.7841 14.5397 10.5472 14.5397 10.4011 14.373C10.255 14.2062 10.255 13.9358 10.4011 13.769L12.5456 11.3211Z" fill="#333333"/>
</g>
</svg>
