<svg width="24" height="24" viewBox="0 0 24 24" fill="none" xmlns="http://www.w3.org/2000/svg">
<g id="Icons/Other/Pie Chart/">
<path id="Union" fill-rule="evenodd" clip-rule="evenodd" d="M20.9998 12.5134V12.3866C20.9657 7.19671 16.748 3 11.55 3C11.2979 3 11.0998 3.20883 11.0998 3.46091V11.9C11.0998 12.4523 11.5475 12.9 12.0998 12.9H20.6027C20.8192 12.9 20.9984 12.7298 20.9998 12.5134ZM9.05905 4.26878C9.64725 4.08993 10.1996 4.56267 10.1996 5.17746V12.8001C10.1996 13.3524 10.6473 13.8001 11.1996 13.8001H18.8229C19.4377 13.8001 19.9104 14.3525 19.7316 14.9406C18.6654 18.4479 15.4058 21.0003 11.55 21.0003C6.82797 21.0003 3 17.1723 3 12.4503C3 8.59468 5.55204 5.33516 9.05905 4.26878Z" fill="white"/>
</g>
</svg>