<svg width="24" height="24" viewBox="0 0 24 24" fill="none" xmlns="http://www.w3.org/2000/svg">
<g id="Icons/User/Team/">
<path id="Union" fill-rule="evenodd" clip-rule="evenodd" d="M12.0249 7.85C12.0249 9.42401 10.7489 10.7 9.17491 10.7C7.6009 10.7 6.32491 9.42401 6.32491 7.85C6.32491 6.27599 7.6009 5 9.17491 5C10.7489 5 12.0249 6.27599 12.0249 7.85ZM8.795 11.84C5.59451 11.84 3 14.4346 3 17.635V18.68C3 18.9948 3.2552 19.25 3.57 19.25L4.14 19.25H8.795L9.555 19.25L14.21 19.25L14.78 19.25C15.0948 19.25 15.35 18.9948 15.35 18.68V17.635C15.35 14.4346 12.7555 11.84 9.555 11.84H8.795ZM20.86 19.25H16.7752V18.889V17.7047C16.7752 16.0096 16.165 14.4645 15.1631 13.2994C15.1934 13.0131 15.4356 12.79 15.7299 12.79H16.68C19.6182 12.79 22 15.1719 22 18.11V18.68C22 18.9948 21.7448 19.25 21.43 19.25L20.86 19.25ZM16.3 11.65C17.6117 11.65 18.675 10.5867 18.675 9.275C18.675 7.96332 17.6117 6.9 16.3 6.9C14.9883 6.9 13.925 7.96332 13.925 9.275C13.925 10.5867 14.9883 11.65 16.3 11.65Z" fill="white"/>
</g>
</svg>
