<svg width="18" height="18" viewBox="0 0 18 18" fill="none" xmlns="http://www.w3.org/2000/svg">
<path fill-rule="evenodd" clip-rule="evenodd" d="M8.99993 7.35C10.1597 7.35 11.0999 6.4098 11.0999 5.25C11.0999 4.0902 10.1597 3.15 8.99993 3.15C7.84013 3.15 6.89993 4.0902 6.89993 5.25C6.89993 6.4098 7.84013 7.35 8.99993 7.35ZM8.99993 8.25C10.6568 8.25 11.9999 6.90685 11.9999 5.25C11.9999 3.59315 10.6568 2.25 8.99993 2.25C7.34307 2.25 5.99993 3.59315 5.99993 5.25C5.99993 6.90685 7.34307 8.25 8.99993 8.25Z" fill="#CDCDCD"/>
<path fill-rule="evenodd" clip-rule="evenodd" d="M2.25 15.225C2.25 11.8699 4.96987 9.15004 8.325 9.15004H9.675C13.0301 9.15004 15.75 11.8699 15.75 15.225V15.3C15.75 15.5486 15.5485 15.75 15.3 15.75C15.0515 15.75 14.85 15.5486 14.85 15.3V15.225C14.85 12.367 12.5331 10.05 9.675 10.05H8.325C5.46693 10.05 3.15 12.367 3.15 15.225V15.3C3.15 15.5486 2.94853 15.75 2.7 15.75C2.45147 15.75 2.25 15.5486 2.25 15.3V15.225Z" fill="#CDCDCD"/>
</svg>
