<svg width="24" height="24" viewBox="0 0 24 24" fill="none" xmlns="http://www.w3.org/2000/svg">
<g id="Icons/File/Approval/">
<path id="Subtract" fill-rule="evenodd" clip-rule="evenodd" d="M10.1562 3C9.3796 3 8.75 3.6296 8.75 4.40625H7.8125C7.74949 4.40625 7.68697 4.40832 7.625 4.4124C7.59148 4.41461 7.55813 4.4174 7.52494 4.42077C6.10672 4.5648 5 5.76253 5 7.21875V18.9375C5 20.4908 6.2592 21.75 7.8125 21.75H17.1875C18.7408 21.75 20 20.4908 20 18.9375V7.21875C20 5.72846 18.8409 4.50889 17.375 4.4124L17.3681 4.41196C17.3084 4.40817 17.2482 4.40625 17.1875 4.40625H16.25C16.25 3.6296 15.6204 3 14.8438 3H10.1562ZM14.8438 4.125H10.1562C10.0009 4.125 9.875 4.25092 9.875 4.40625V5.34375C9.875 5.49908 10.0009 5.625 10.1562 5.625H14.8438C14.9991 5.625 15.125 5.49908 15.125 5.34375V4.40625C15.125 4.25092 14.9991 4.125 14.8438 4.125ZM16.1791 10.6649C16.3988 10.8846 16.3988 11.2408 16.1791 11.4604L12.0781 15.5615C11.8585 15.7811 11.5024 15.7811 11.2827 15.5615L8.82122 13.1009C8.60152 12.8813 8.60145 12.5251 8.82108 12.3054C9.04072 12.0857 9.39687 12.0857 9.61658 12.3053L11.6803 14.3683L15.3837 10.6649C15.6033 10.4453 15.9595 10.4453 16.1791 10.6649Z" fill="#311E1C"/>
</g>
</svg>
