<svg width="24" height="24" viewBox="0 0 24 24" fill="none" xmlns="http://www.w3.org/2000/svg">
<g id="Icons/Function/Setting/">
<path id="Subtract" fill-rule="evenodd" clip-rule="evenodd" d="M9.94488 4.0233C10.0952 3.4219 10.6356 3 11.2555 3H12.7485C13.3684 3 13.9087 3.4219 14.0591 4.0233L14.246 4.77113C14.3118 5.03431 14.5086 5.24377 14.7592 5.34765C15.0098 5.45155 15.295 5.44161 15.5276 5.30202L16.1873 4.90624C16.7188 4.5873 17.3992 4.67106 17.8376 5.1094L18.8933 6.16509C19.3316 6.60343 19.4154 7.28385 19.0964 7.81542L18.7041 8.46926C18.5634 8.70381 18.5536 8.99136 18.6585 9.24395C18.7633 9.49606 18.9741 9.694 19.2389 9.76022L19.9767 9.94466C20.5781 10.095 21 10.6354 21 11.2553V12.7482C21 13.3682 20.5781 13.9085 19.9767 14.0589L19.2464 14.2414C18.9791 14.3083 18.7665 14.5082 18.6611 14.7627C18.5556 15.0172 18.5655 15.3067 18.7073 15.5429L19.0938 16.187C19.4127 16.7186 19.3289 17.399 18.8906 17.8374L17.8349 18.893C17.3966 19.3314 16.7162 19.4152 16.1846 19.0962L15.5428 18.7111C15.3057 18.5689 15.0151 18.559 14.7597 18.6649C14.5044 18.7707 14.3037 18.984 14.2367 19.2522L14.0556 19.9767C13.9052 20.5781 13.3649 21 12.7449 21H11.252C10.6321 21 10.0917 20.5781 9.94136 19.9767L9.75923 19.2482C9.69239 18.9808 9.49252 18.7681 9.23807 18.6623C8.98301 18.5563 8.6926 18.566 8.45574 18.7082L7.81319 19.0937C7.28162 19.4126 6.6012 19.3289 6.16286 18.8905L5.10717 17.8348C4.66883 17.3965 4.58507 16.7161 4.90401 16.1845L5.29472 15.5333C5.43553 15.2986 5.44558 15.011 5.34099 14.7581C5.23621 14.5047 5.02465 14.3057 4.75867 14.2392L4.0233 14.0553C3.4219 13.905 3 13.3646 3 12.7447V11.2518C3 10.6319 3.4219 10.0915 4.0233 9.94114L4.76933 9.75463C5.03259 9.68882 5.2422 9.49217 5.3464 9.24161C5.45089 8.99037 5.44112 8.70431 5.30112 8.47098L4.90631 7.81297C4.58737 7.2814 4.67114 6.60098 5.10948 6.16264L6.16516 5.10695C6.6035 4.66861 7.28393 4.58485 7.81549 4.90379L8.47873 5.30173C8.71088 5.44102 8.99545 5.45098 9.24556 5.34734C9.4957 5.24368 9.69205 5.03461 9.75772 4.77193L9.94488 4.0233ZM12.0017 15.6088C13.9913 15.6088 15.6042 13.9959 15.6042 12.0063C15.6042 10.0167 13.9913 8.40374 12.0017 8.40374C10.012 8.40374 8.39912 10.0167 8.39912 12.0063C8.39912 13.9959 10.012 15.6088 12.0017 15.6088ZM12.0017 14.5281C13.3944 14.5281 14.5235 13.399 14.5235 12.0063C14.5235 10.6135 13.3944 9.4845 12.0017 9.4845C10.6089 9.4845 9.47989 10.6135 9.47989 12.0063C9.47989 13.399 10.6089 14.5281 12.0017 14.5281Z" fill="#311E1C"/>
</g>
</svg>
