<svg width="99" height="38" viewBox="0 0 99 38" fill="none" xmlns="http://www.w3.org/2000/svg">
<path d="M50.3837 26.4103C48.7585 24.3879 47.249 22.5822 46.05 20.9282C45.7287 20.5296 45.4458 20.1015 45.2049 19.6497C44.9588 20.0967 44.6787 20.5242 44.367 20.9282C43.0814 22.5822 41.1817 24.7563 39.506 26.7571L37.1875 24.3157C39.1088 22.0189 41.0373 19.6714 42.4891 17.5768C43.1503 16.6027 43.4888 15.4456 43.4569 14.2687V11.7263H38.466V8.71435H51.691V11.7263H46.8517V14.2687C46.8244 15.4408 47.1517 16.5938 47.7906 17.5768C49.2729 19.8307 50.8789 22.0009 52.6011 24.0774L50.3837 26.4103ZM53.9951 29.574V7.77539H57.4043V29.574H53.9951Z" fill="#595757"/>
<path d="M61.074 15.1571V12.4413H69.6692V11.3074H61.4496V8.33877H73.0712V13.3948C73.0712 15.5183 72.58 16.2839 70.7743 17.0062C67.9357 18.1402 64.5337 19.2742 61.4496 20.3143L60.2578 17.6057C62.9014 16.7606 65.4438 16.0022 67.719 15.186L61.074 15.1571ZM62.9014 29.3717V20.661H79.9329V29.3717H62.9014ZM76.5309 23.5934H66.3106V26.3814H76.5309V23.5934ZM76.5309 19.7942V7.77539H79.9329V19.8231L76.5309 19.7942Z" fill="#595757"/>
<path d="M86.4048 28.0427C85.6385 28.0427 84.9037 27.7383 84.3618 27.1965C83.82 26.6547 83.5156 25.9198 83.5156 25.1536V11.4302C83.5156 10.6639 83.82 9.92904 84.3618 9.38722C84.9037 8.8454 85.6385 8.54102 86.4048 8.54102H97.658V11.5963H87.3871C87.3286 11.5963 87.2707 11.6079 87.2168 11.6305C87.1628 11.6531 87.1139 11.6862 87.0729 11.7279C87.0319 11.7695 86.9996 11.819 86.9779 11.8733C86.9562 11.9275 86.9455 11.9856 86.9465 12.0441V16.19H97.0585V19.2525H86.9465V24.4818C86.9455 24.5403 86.9562 24.5984 86.9779 24.6527C86.9996 24.707 87.0319 24.7564 87.0729 24.7981C87.1139 24.8398 87.1628 24.8729 87.2168 24.8954C87.2707 24.918 87.3286 24.9297 87.3871 24.9297H98.1347V27.9922L86.4048 28.0427Z" fill="#595757"/>
<path d="M27.9267 25.5527L16.0234 32.4217L27.9267 25.5527Z" fill="#ED5C43"/>
<path d="M27.9264 25.5517L16.0231 32.4206L4.11982 25.5517V20.7124V18.1194V13.5112V11.8066L16.0231 4.93045L25.3911 10.3404L29.3781 8.03627L16.0231 0.322266L0.132812 9.50251V27.8486L16.0231 37.0288L31.9134 27.8486V23.2476L27.9264 25.5517Z" fill="#ED5C43"/>
<path d="M27.9302 13.5117L16.0269 20.3879L6.11719 14.6674V19.2683L16.0269 24.9888L27.9302 18.1199L31.9172 15.8158V11.2148L27.9302 13.5117Z" fill="#ED5C43"/>
</svg>
